@startuml

title __VALIDATION's Class Diagram__\n

  namespace org.factcast.store.pgsql {
    namespace registry {
      namespace validation {
        class org.factcast.store.pgsql.registry.validation.FactValidationAspect {
            {static} - log : Logger
            + FactValidationAspect()
            + interceptPublish()
            + interceptPublishIfUnchanged()
            - validate()
        }
      }
    }
  }
  

  namespace org.factcast.store.pgsql {
    namespace registry {
      namespace validation {
        class org.factcast.store.pgsql.registry.validation.FactValidationError {
            - level : String
            - message : String
            + FactValidationError()
            + FactValidationError()
            + equals()
            + hashCode()
            + level()
            + message()
            + toString()
        }
      }
    }
  }
  

  namespace org.factcast.store.pgsql {
    namespace registry {
      namespace validation {
        class org.factcast.store.pgsql.registry.validation.FactValidator {
            {static} - VALIDATION_OK : List<FactValidationError>
            + FactValidator()
            + validate()
            {static} # isValidateable()
            - doValidate()
        }
      }
    }
  }
  

  namespace org.factcast.store.pgsql {
    namespace registry {
      namespace validation {
        class org.factcast.store.pgsql.registry.validation.FactValidatorConfiguration {
            + factValidationAspect()
            + factValidator()
            + schemaStore()
        }
      }
    }
  }
  

  org.factcast.store.pgsql.registry.validation.FactValidationAspect o-- org.factcast.store.pgsql.registry.validation.FactValidator : validator
  org.factcast.store.pgsql.registry.validation.FactValidator o-- org.factcast.store.pgsql.PgConfigurationProperties : props
  org.factcast.store.pgsql.registry.validation.FactValidator o-- org.factcast.store.pgsql.registry.SchemaRegistry : registry
  org.factcast.store.pgsql.registry.validation.FactValidator o-- org.factcast.store.pgsql.registry.metrics.RegistryMetrics : registryMetrics


right footer


PlantUML diagram generated by SketchIt! (https://bitbucket.org/pmesmeur/sketch.it)
For more information about this tool, please contact philippe.mesmeur@gmail.com
endfooter

@enduml
