@startuml

title __FACTCAST-STORE-TEST's Class Diagram__\n

  namespace org.factcast.store.test {
    abstract class org.factcast.store.test.AbstractFactStoreTest {
    }
  }
  

  namespace org.factcast.store.test {
    abstract class org.factcast.store.test.AbstractTokenStoreTest {
    }
  }
  

  namespace org.factcast.store.test {
    interface org.factcast.store.test.IntegrationTest {
    }
  }
  

  org.factcast.store.test.AbstractFactStoreTest o-- org.factcast.core.store.FactStore : store
  org.factcast.store.test.AbstractFactStoreTest o-- org.factcast.core.FactCast : uut
  org.factcast.store.test.AbstractTokenStoreTest o-- org.factcast.core.store.TokenStore : uut


right footer


PlantUML diagram generated by SketchIt! (https://bitbucket.org/pmesmeur/sketch.it)
For more information about this tool, please contact philippe.mesmeur@gmail.com
endfooter

@enduml
